# xmcd
#
# Track frame offsets: 
#        150
#        19442
#        39754
#        61994
#        80551
#        98928
#        116120
#        132075
#        148202
#        165650
#
# Disc length: 2467 seconds
#
# Revision: 0
# Processed by: cddbd v1.5.2PL0 Copyright (c) Steve Scherf et al.
# Submitted via: ExactAudioCopy v0.99pb3
#
DISCID=8809a10a
DTITLE=ฝน  ธนสุนทร - เรียกที่รักได้มั้ย
DYEAR=2008
DGENRE=Country
TTITLE0=อายจัง
TTITLE1=เจ็บนี้เพื่อเธอ
TTITLE2=มาก่อนคือแฟนเก่า
TTITLE3=เรียกที่รักได้มั้ย
TTITLE4=อย่าทำดีมากนัก
TTITLE5=สวยไม่พอชาม งามไม่พอถ้วย
TTITLE6=รอรักมาทักทาย
TTITLE7=ร้องเพลงกันดีกว่า
TTITLE8=ดอกหญ้าลาทุ่ง
TTITLE9=เพลงรักบ้านทุ่ง
EXTD=
EXTT0=
EXTT1=
EXTT2=
EXTT3=
EXTT4=
EXTT5=
EXTT6=
EXTT7=
EXTT8=
EXTT9=
PLAYORDER=
